curl
version=1
nRows=425
nColumns=3
inDegrees=yes
endheader
time	r_shoulder_elev	r_elbow_flex
10.8300	34.270096	93.501696
10.8400	34.201622	92.061694
10.8500	34.133115	90.605592
10.8600	34.064537	89.133611
10.8700	33.995827	87.646071
10.8800	33.926893	86.143391
10.8900	33.857615	84.626084
10.9000	33.787839	83.094754
10.9100	33.717383	81.550083
10.9200	33.646028	79.992830
10.9300	33.573526	78.423823
10.9400	33.499596	76.843947
10.9500	33.423927	75.254144
10.9600	33.346181	73.655403
10.9700	33.265994	72.048760
10.9800	33.182981	70.435291
10.9900	33.096741	68.816110
11.0000	33.006856	67.192370
11.0100	32.912903	65.565265
11.0200	32.814457	63.936025
11.0300	32.711092	62.305923
11.0400	32.602394	60.676274
11.0500	32.487965	59.048441
11.0600	32.367427	57.423832
11.0700	32.240431	55.803907
11.0800	32.106662	54.190178
11.0900	31.965847	52.584213
11.1000	31.817758	50.987636
11.1100	31.662221	49.402131
11.1200	31.499118	47.829443
11.1300	31.328394	46.271377
11.1400	31.150058	44.729799
11.1500	30.964188	43.206630
11.1600	30.770933	41.703849
11.1700	30.570511	40.223481
11.1800	30.363216	38.767594
11.1900	30.149410	37.338287
11.2000	29.929527	35.937683
11.2100	29.704068	34.567913
11.2200	29.473600	33.231105
11.2300	29.238749	31.929364
11.2400	29.000201	30.664763
11.2500	28.758692	29.439317
11.2600	28.515005	28.254973
11.2700	28.269963	27.113583
11.2800	28.024421	26.016888
11.2900	27.779261	24.966501
11.3000	27.535385	23.963882
11.3100	27.293702	23.010326
11.3200	27.055127	22.106939
11.3300	26.820566	21.254629
11.3400	26.590914	20.454090
11.3500	26.367041	19.705789
11.3600	26.149787	19.009958
11.3700	25.939954	18.366587
11.3800	25.738298	17.775422
11.3900	25.545520	17.235959
11.4000	25.362262	16.747450
11.4100	25.189097	16.308903
11.4200	25.026529	15.919095
11.4300	24.874979	15.576577
11.4400	24.734790	15.279692
11.4500	24.606217	15.026588
11.4600	24.489429	14.815239
11.4700	24.384502	14.643460
11.4800	24.291423	14.508938
11.4900	24.210090	14.409246
11.5000	24.140309	14.341873
11.5100	24.081800	14.304244
11.5200	24.034201	14.293747
11.5300	23.997068	14.307758
11.5400	23.969885	14.343659
11.5500	23.952066	14.398865
11.5600	23.942964	14.470843
11.5700	23.941877	14.557130
11.5800	23.948059	14.655349
11.5900	23.960725	14.763229
11.6000	23.979062	14.878610
11.6100	24.002238	14.999460
11.6200	24.029411	15.123881
11.6300	24.059741	15.250113
11.6400	24.092396	15.376541
11.6500	24.126560	15.501694
11.6600	24.161449	15.624248
11.6700	24.196310	15.743022
11.6800	24.230432	15.856979
11.6900	24.263157	15.965217
11.7000	24.293877	16.066970
11.7100	24.322047	16.161597
11.7200	24.347185	16.248581
11.7300	24.368873	16.327521
11.7400	24.386766	16.398128
11.7500	24.400584	16.460216
11.7600	24.410118	16.513701
11.7700	24.415229	16.558592
11.7800	24.415841	16.594992
11.7900	24.411944	16.623092
11.8000	24.403585	16.643166
11.8100	24.390867	16.655576
11.8200	24.373945	16.660766
11.8300	24.353016	16.659265
11.8400	24.328319	16.651687
11.8500	24.300124	16.638735
11.8600	24.268729	16.621203
11.8700	24.234456	16.599978
11.8800	24.197641	16.576045
11.8900	24.158631	16.550491
11.9000	24.117783	16.524510
11.9100	24.075452	16.499404
11.9200	24.031994	16.476591
11.9300	23.987759	16.457600
11.9400	23.943090	16.444082
11.9500	23.898320	16.437801
11.9600	23.853768	16.440640
11.9700	23.809744	16.454597
11.9800	23.766542	16.481779
11.9900	23.724442	16.524397
12.0000	23.683712	16.584760
12.0100	23.644606	16.665263
12.0200	23.607369	16.768378
12.0300	23.572234	16.896639
12.0400	23.539427	17.052630
12.0500	23.509169	17.238964
12.0600	23.481676	17.458271
12.0700	23.457166	17.713174
12.0800	23.435860	18.006274
12.0900	23.417984	18.340125
12.1000	23.403771	18.717216
12.1100	23.393468	19.139945
12.1200	23.387338	19.610603
12.1300	23.385659	20.131347
12.1400	23.388731	20.704178
12.1500	23.396877	21.330919
12.1600	23.410444	22.013192
12.1700	23.429806	22.752395
12.1800	23.455366	23.549680
12.1900	23.487555	24.405929
12.2000	23.526835	25.321739
12.2100	23.573695	26.297396
12.2200	23.628657	27.332862
12.2300	23.692266	28.427760
12.2400	23.765099	29.581362
12.2500	23.847752	30.792580
12.2600	23.940846	32.059961
12.2700	24.045016	33.381688
12.2800	24.160913	34.755587
12.2900	24.289196	36.179130
12.3000	24.430526	37.649456
12.3100	24.585559	39.163390
12.3200	24.754944	40.717465
12.3300	24.939309	42.307956
12.3400	25.139257	43.930917
12.3500	25.355356	45.582215
12.3600	25.588131	47.257580
12.3700	25.838050	48.952650
12.3800	26.105524	50.663016
12.3900	26.390886	52.384278
12.4000	26.694390	54.112091
12.4100	27.016200	55.842218
12.4200	27.356378	57.570577
12.4300	27.714880	59.293283
12.4400	28.091545	61.006699
12.4500	28.486093	62.707464
12.4600	28.898116	64.392538
12.4700	29.327075	66.059222
12.4800	29.772299	67.705191
12.4900	30.232982	69.328509
12.5000	30.708182	70.927644
12.5100	31.196827	72.501484
12.5200	31.697716	74.049337
12.5300	32.209522	75.570939
12.5400	32.730803	77.066444
12.5500	33.260006	78.536427
12.5600	33.795482	79.981864
12.5700	34.335491	81.404118
12.5800	34.878221	82.804918
12.5900	35.421795	84.186334
12.6000	35.964293	85.550738
12.6100	36.503763	86.900774
12.6200	37.038237	88.239311
12.6300	37.565751	89.569402
12.6400	38.084363	90.894227
12.6500	38.592163	92.217047
12.6600	39.087298	93.541143
12.6700	39.567985	94.869760
12.6800	40.032527	96.206047
12.6900	40.479330	97.552997
12.7000	40.906914	98.913386
12.7100	41.313932	100.289717
12.7200	41.699175	101.684162
12.7300	42.061590	103.098507
12.7400	42.400282	104.534107
12.7500	42.714525	105.991837
12.7600	43.003766	107.472059
12.7700	43.267628	108.974586
12.7800	43.505909	110.498664
12.7900	43.718588	112.042948
12.8000	43.905813	113.605503
12.8100	44.067904	115.183801
12.8200	44.205343	116.774733
12.8300	44.318768	118.374628
12.8400	44.408964	119.979284
12.8500	44.476849	121.584002
12.8600	44.523464	123.183637
12.8700	44.549961	124.772650
12.8800	44.557586	126.345168
12.8900	44.547666	127.895056
12.9000	44.521592	128.000000
12.9100	44.480805	128.000000
12.9200	44.426777	128.000000
12.9300	44.361001	128.000000
12.9400	44.284970	128.000000
12.9500	44.200166	128.000000
12.9600	44.108047	128.000000
12.9700	44.010028	128.000000
12.9800	43.907476	128.000000
12.9900	43.801697	128.000000
13.0000	43.693920	128.000000
13.0100	43.585299	128.000000
13.0200	43.476894	128.000000
13.0300	43.369673	128.000000
13.0400	43.264504	128.000000
13.0500	43.162147	128.000000
13.0600	43.063261	128.000000
13.0700	42.968394	128.000000
13.0800	42.877989	128.000000
13.0900	42.792382	128.000000
13.1000	42.711810	128.000000
13.1100	42.636414	128.000000
13.1200	42.566241	128.000000
13.1300	42.501257	128.000000
13.1400	42.441353	128.000000
13.1500	42.386349	128.000000
13.1600	42.336012	128.000000
13.1700	42.290058	128.000000
13.1800	42.248163	128.000000
13.1900	42.209979	128.000000
13.2000	42.175134	128.000000
13.2100	42.143249	128.000000
13.2200	42.113942	128.000000
13.2300	42.086840	128.000000
13.2400	42.061580	128.000000
13.2500	42.037822	128.000000
13.2600	42.015250	128.000000
13.2700	41.993575	128.000000
13.2800	41.972544	128.000000
13.2900	41.951936	128.000000
13.3000	41.931562	128.000000
13.3100	41.911272	127.210331
13.3200	41.890945	125.912207
13.3300	41.870492	124.604795
13.3400	41.849854	123.291010
13.3500	41.828991	121.973486
13.3600	41.807887	120.654558
13.3700	41.786540	119.336256
13.3800	41.764956	118.020296
13.3900	41.743148	116.708071
13.4000	41.721126	115.400651
13.4100	41.698896	114.098790
13.4200	41.676450	112.802924
13.4300	41.653764	111.513183
13.4400	41.630796	110.229406
13.4500	41.607472	108.951148
13.4600	41.583694	107.677706
13.4700	41.559329	106.408131
13.4800	41.534206	105.141256
13.4900	41.508119	103.875719
13.5000	41.480822	102.609989
13.5100	41.452029	101.342393
13.5200	41.421414	100.071149
13.5300	41.388614	98.794395
13.5400	41.353226	97.510218
13.5500	41.314817	96.216690
13.5600	41.272920	94.911893
13.5700	41.227041	93.593959
13.5800	41.176667	92.261090
13.5900	41.121264	90.911599
13.6000	41.060289	89.543927
13.6100	40.993193	88.156679
13.6200	40.919425	86.748642
13.6300	40.838443	85.318810
13.6400	40.749714	83.866402
13.6500	40.652723	82.390880
13.6600	40.546980	80.891961
13.6700	40.432017	79.369629
13.6800	40.307401	77.824139
13.6900	40.172735	76.256023
13.7000	40.027656	74.666086
13.7100	39.871845	73.055406
13.7200	39.705026	71.425326
13.7300	39.526963	69.777443
13.7400	39.337470	68.113594
13.7500	39.136401	66.435842
13.7600	38.923658	64.746455
13.7700	38.699185	63.047890
13.7800	38.462973	61.342768
13.7900	38.215053	59.633850
13.8000	37.955502	57.924016
13.8100	37.684438	56.216242
13.8200	37.402021	54.513573
13.8300	37.108456	52.819103
13.8400	36.803989	51.135950
13.8500	36.488915	49.467232
13.8600	36.163569	47.816047
13.8700	35.828340	46.185449
13.8800	35.483662	44.578427
13.8900	35.130024	42.997884
13.9000	34.767969	41.446618
13.9100	34.398092	39.927300
13.9200	34.021050	38.442460
13.9300	33.637554	36.994472
13.9400	33.248379	35.585536
13.9500	32.854354	34.217672
13.9600	32.456368	32.892707
13.9700	32.055367	31.612270
13.9800	31.652349	30.377789
13.9900	31.248361	29.190485
14.0000	30.844495	28.051372
14.0100	30.441878	26.961263
14.0200	30.041670	25.920768
14.0300	29.645050	24.930298
14.0400	29.253209	23.990074
14.0500	28.867337	23.100134
14.0600	28.488617	22.260336
14.0700	28.118208	21.470368
14.0800	27.757237	20.729756
14.0900	27.406788	20.037873
14.1000	27.067887	19.393950
14.1100	26.741497	18.797077
14.1200	26.428506	18.246223
14.1300	26.129715	17.740235
14.1400	25.845836	17.277849
14.1500	25.577482	16.857702
14.1600	25.325160	16.478332
14.1700	25.089270	16.138192
14.1800	24.870098	15.835651
14.1900	24.667819	15.569005
14.2000	24.482490	15.336481
14.2100	24.314058	15.136249
14.2200	24.162359	14.966422
14.2300	24.027118	14.825075
14.2400	23.907962	14.710245
14.2500	23.804419	14.619948
14.2600	23.715928	14.552187
14.2700	23.641847	14.504965
14.2800	23.581462	14.476297
14.2900	23.533997	14.464221
14.3000	23.498621	14.466815
14.3100	23.474465	14.482201
14.3200	23.460627	14.508567
14.3300	23.456184	14.544171
14.3400	23.460205	14.587353
14.3500	23.471757	14.636550
14.3600	23.489920	14.690296
14.3700	23.513791	14.747238
14.3800	23.542498	14.806135
14.3900	23.575203	14.865868
14.4000	23.611111	14.925442
14.4100	23.649477	14.983986
14.4200	23.689610	15.040757
14.4300	23.730879	15.095136
14.4400	23.772713	15.146627
14.4500	23.814606	15.194855
14.4600	23.856120	15.239562
14.4700	23.896881	15.280597
14.4800	23.936583	15.317917
14.4900	23.974986	15.351574
14.5000	24.011911	15.381710
14.5100	24.047242	15.408548
14.5200	24.080920	15.432384
14.5300	24.112942	15.453578
14.5400	24.143353	15.472544
14.5500	24.172241	15.489741
14.5600	24.199739	15.505667
14.5700	24.226010	15.520845
14.5800	24.251249	15.535817
14.5900	24.275673	15.551137
14.6000	24.299518	15.567358
14.6100	24.323030	15.585028
14.6200	24.346465	15.604682
14.6300	24.370077	15.626835
14.6400	24.394115	15.651970
14.6500	24.418822	15.680541
14.6600	24.444425	15.712958
14.6700	24.471132	15.749586
14.6800	24.499130	15.790741
14.6900	24.528580	15.836682
14.7000	24.559614	15.887610
14.7100	24.592333	15.943662
14.7200	24.626806	16.004915
14.7300	24.663066	16.071377
14.7400	24.701111	16.142989
14.7500	24.740905	16.219629
14.7600	24.782376	16.301106
14.7700	24.825418	16.387169
14.7800	24.869892	16.477506
14.7900	24.915629	16.571747
14.8000	24.962431	16.669473
14.8100	25.010072	16.770215
14.8200	25.058306	16.873470
14.8300	25.106866	16.978696
14.8400	25.155466	17.085330
14.8500	25.203812	17.192792
14.8600	25.251595	17.300492
14.8700	25.298506	17.407841
14.8800	25.344230	17.514260
14.8900	25.388456	17.619185
14.9000	25.430879	17.722079
14.9100	25.471200	17.822436
14.9200	25.509135	17.919787
14.9300	25.544415	18.013709
14.9400	25.576788	18.103825
14.9500	25.606025	18.189810
14.9600	25.631918	18.271391
14.9700	25.654286	18.348348
14.9800	25.672974	18.420518
14.9900	25.687856	18.487787
15.0000	25.698834	18.550096
15.0100	25.705842	18.607432
15.0200	25.708841	18.659830
15.0300	25.707822	18.707364
15.0400	25.702808	18.750149
15.0500	25.693845	18.788335
15.0600	25.681009	18.822099
15.0700	25.664398	18.851648
